<svg width="250" height="49" viewBox="0 0 250 49" fill="none" xmlns="http://www.w3.org/2000/svg">
<path d="M50.003 38V12.572H65.915V17.408H55.736V22.517H64.394V27.314H55.736V33.164H66.305V38H50.003ZM82.0644 45.176V39.287L82.2984 36.323C81.6484 36.947 80.8944 37.467 80.0364 37.883C79.1784 38.273 78.3074 38.468 77.4234 38.468C75.0314 38.468 73.1074 37.571 71.6514 35.777C70.2214 33.957 69.5064 31.474 69.5064 28.328C69.5064 26.222 69.8834 24.415 70.6374 22.907C71.4174 21.373 72.4184 20.203 73.6404 19.397C74.8884 18.591 76.1884 18.188 77.5404 18.188C78.6064 18.188 79.5424 18.383 80.3484 18.773C81.1544 19.137 81.9344 19.735 82.6884 20.567H82.8444L83.3124 18.656H87.7974V45.176H82.0644ZM78.9054 33.788C79.5294 33.788 80.0884 33.658 80.5824 33.398C81.1024 33.138 81.5964 32.683 82.0644 32.033V24.116C81.5704 23.648 81.0374 23.323 80.4654 23.141C79.9194 22.959 79.3864 22.868 78.8664 22.868C77.9564 22.868 77.1504 23.31 76.4484 24.194C75.7464 25.052 75.3954 26.404 75.3954 28.25C75.3954 30.148 75.6944 31.552 76.2924 32.462C76.9164 33.346 77.7874 33.788 78.9054 33.788ZM98.6878 38.468C96.5818 38.468 95.0478 37.779 94.0858 36.401C93.1498 34.997 92.6818 33.086 92.6818 30.668V18.656H98.4148V29.927C98.4148 31.305 98.6098 32.267 98.9998 32.813C99.3898 33.333 100.001 33.593 100.833 33.593C101.561 33.593 102.172 33.424 102.666 33.086C103.16 32.748 103.693 32.202 104.265 31.448V18.656H109.998V38H105.318L104.889 35.309H104.772C103.966 36.271 103.082 37.038 102.12 37.61C101.158 38.182 100.014 38.468 98.6878 38.468ZM115.043 38V18.656H120.776V38H115.043ZM117.89 15.809C116.928 15.809 116.148 15.536 115.55 14.99C114.952 14.444 114.653 13.716 114.653 12.806C114.653 11.896 114.952 11.168 115.55 10.622C116.148 10.076 116.928 9.803 117.89 9.803C118.852 9.803 119.632 10.076 120.23 10.622C120.828 11.168 121.127 11.896 121.127 12.806C121.127 13.716 120.828 14.444 120.23 14.99C119.632 15.536 118.852 15.809 117.89 15.809ZM131.086 38.468C129.11 38.468 127.732 37.883 126.952 36.713C126.198 35.517 125.821 33.944 125.821 31.994V10.661H131.554V32.228C131.554 32.826 131.658 33.242 131.866 33.476C132.1 33.71 132.334 33.827 132.568 33.827C132.698 33.827 132.802 33.827 132.88 33.827C132.984 33.801 133.114 33.775 133.27 33.749L133.972 38C133.66 38.13 133.257 38.234 132.763 38.312C132.295 38.416 131.736 38.468 131.086 38.468ZM136.98 38V18.656H142.713V38H136.98ZM139.827 15.809C138.865 15.809 138.085 15.536 137.487 14.99C136.889 14.444 136.59 13.716 136.59 12.806C136.59 11.896 136.889 11.168 137.487 10.622C138.085 10.076 138.865 9.803 139.827 9.803C140.789 9.803 141.569 10.076 142.167 10.622C142.765 11.168 143.064 11.896 143.064 12.806C143.064 13.716 142.765 14.444 142.167 14.99C141.569 15.536 140.789 15.809 139.827 15.809ZM157.899 38.468C157.041 38.468 156.17 38.26 155.286 37.844C154.428 37.402 153.622 36.765 152.868 35.933H152.712L152.244 38H147.759V10.661H153.492V17.369L153.336 20.333C154.09 19.657 154.909 19.137 155.793 18.773C156.677 18.383 157.561 18.188 158.445 18.188C160.005 18.188 161.357 18.591 162.501 19.397C163.645 20.203 164.516 21.347 165.114 22.829C165.738 24.285 166.05 26.001 166.05 27.977C166.05 30.187 165.66 32.085 164.88 33.671C164.1 35.231 163.086 36.427 161.838 37.259C160.616 38.065 159.303 38.468 157.899 38.468ZM156.573 33.788C157.561 33.788 158.406 33.333 159.108 32.423C159.81 31.513 160.161 30.07 160.161 28.094C160.161 24.61 159.043 22.868 156.807 22.868C155.663 22.868 154.558 23.453 153.492 24.623V32.54C154.012 33.008 154.532 33.333 155.052 33.515C155.572 33.697 156.079 33.788 156.573 33.788ZM170.115 38V18.656H174.795L175.185 22.049H175.341C176.043 20.749 176.888 19.787 177.876 19.163C178.864 18.513 179.852 18.188 180.84 18.188C181.386 18.188 181.841 18.227 182.205 18.305C182.569 18.357 182.881 18.448 183.141 18.578L182.205 23.531C181.867 23.427 181.529 23.349 181.191 23.297C180.879 23.245 180.515 23.219 180.099 23.219C179.371 23.219 178.604 23.492 177.798 24.038C177.018 24.558 176.368 25.468 175.848 26.768V38H170.115ZM185.654 38V18.656H191.387V38H185.654ZM188.501 15.809C187.539 15.809 186.759 15.536 186.161 14.99C185.563 14.444 185.264 13.716 185.264 12.806C185.264 11.896 185.563 11.168 186.161 10.622C186.759 10.076 187.539 9.803 188.501 9.803C189.463 9.803 190.243 10.076 190.841 10.622C191.439 11.168 191.738 11.896 191.738 12.806C191.738 13.716 191.439 14.444 190.841 14.99C190.243 15.536 189.463 15.809 188.501 15.809ZM202.243 38.468C200.137 38.468 198.603 37.779 197.641 36.401C196.705 34.997 196.237 33.086 196.237 30.668V18.656H201.97V29.927C201.97 31.305 202.165 32.267 202.555 32.813C202.945 33.333 203.556 33.593 204.388 33.593C205.116 33.593 205.727 33.424 206.221 33.086C206.715 32.748 207.248 32.202 207.82 31.448V18.656H213.553V38H208.873L208.444 35.309H208.327C207.521 36.271 206.637 37.038 205.675 37.61C204.713 38.182 203.569 38.468 202.243 38.468ZM218.598 38V18.656H223.278L223.668 21.152H223.824C224.63 20.346 225.488 19.657 226.398 19.085C227.308 18.487 228.4 18.188 229.674 18.188C231.052 18.188 232.157 18.474 232.989 19.046C233.847 19.592 234.523 20.385 235.017 21.425C235.875 20.541 236.785 19.787 237.747 19.163C238.709 18.513 239.827 18.188 241.101 18.188C243.181 18.188 244.702 18.89 245.664 20.294C246.652 21.672 247.146 23.57 247.146 25.988V38H241.413V26.729C241.413 25.325 241.218 24.363 240.828 23.843C240.464 23.323 239.866 23.063 239.034 23.063C238.072 23.063 236.967 23.687 235.719 24.935V38H229.986V26.729C229.986 25.325 229.791 24.363 229.401 23.843C229.037 23.323 228.439 23.063 227.607 23.063C226.645 23.063 225.553 23.687 224.331 24.935V38H218.598Z" fill="black"/>
<rect x="31.5" y="13.5" width="6" height="25.5" fill="#A2A736"/>
<rect x="21" y="13.5" width="6" height="21" fill="#F4911F"/>
<rect x="10.5" y="18" width="6" height="21" fill="#ED4E8F"/>
<rect y="13.5" width="6" height="25.5" fill="#7D5FF3"/>
</svg>
